<?xml version="1.0" standalone="yes"?>
<svg xmlns="http://www.w3.org/2000/svg" width="503" height="496">
<path style="fill:#010101; stroke:none;" d="M0 0L0 496L503 496L503 0L0 0z"/>
<path style="fill:#bec8d6; stroke:none;" d="M190 134L190 135C206.021 134.312 221.928 130.743 238 130.039C262.585 128.963 287.893 131.577 312 136.4C352.675 144.536 394.255 162.187 422.91 193C447.684 219.639 456.563 258.43 437.999 291C431.559 302.3 423.524 312.043 414 320.91C346.907 383.383 232.462 386.514 150 359C110.078 345.68 67.1127 318.717 53 277C50.6918 288.152 66.002 305.637 73.0394 313C98.729 339.877 132.348 356.478 168 365.884C245.883 386.432 345.624 379.771 410 326.679C420.032 318.406 428.561 308.906 435.655 298C441.024 289.745 445.077 280.592 447.346 271C465.397 194.692 376.489 148.295 315 135.801C272.054 127.075 233.039 130.599 190 134z"/>
<path style="fill:#485395; stroke:none;" d="M233 130.424C198.484 134.956 165.414 137.927 133 152.309C85.599 173.339 33.8358 218.224 52.3441 276C55.6278 286.25 60.5372 295.211 66.7207 304C74.7961 315.478 85.7162 324.656 97 332.848C149.732 371.129 224.757 381.034 288 372.718C316.12 369.021 342.974 361.899 369 350.576C421.151 327.887 471.536 270.046 437.396 212C431.784 202.459 425.117 193.653 417 186.09C377.917 149.672 321.421 133.26 269 130.961C257.105 130.439 244.918 128.859 233 130.424z"/>
<path style="fill:#bec8d6; stroke:none;" d="M185 135L185 136L189 136L185 135M153 150L153 151C178.281 147.266 202.072 138.865 228 137.09C271.625 134.102 310.183 144.326 352 154C339.567 144.7 317.034 142.264 302 139.753C250.062 131.08 203.568 138.301 153 150M180 136L180 137L184 137L180 136z"/>
<path style="fill:#23995c; stroke:none;" d="M220 136L221 137L220 136z"/>
<path style="fill:#010101; stroke:none;" d="M247 136.71C194.98 137.402 143.384 147.917 100 178.025C74.0417 196.04 52.8197 225.04 55.0895 258C57.1725 288.247 78.8477 313.127 103 329.329C147.171 358.961 203.414 370.274 256 368.985C306.5 367.748 361.431 355.066 402 323.575C424.895 305.803 443.277 280.113 441.961 250C440.603 218.962 420.32 194.63 396 177.291C353.697 147.13 298.218 136.028 247 136.71z"/>
<path style="fill:#bec8d6; stroke:none;" d="M175 137L175 138L180 138L175 137M172 138L172 139L175 139L172 138z"/>
<path style="fill:#23995c; stroke:none;" d="M321 138L322 139L321 138z"/>
<path style="fill:#bec8d6; stroke:none;" d="M168 139L168 140L172 140L168 139z"/>
<path style="fill:#23995c; stroke:none;" d="M325 139L326 140L325 139z"/>
<path style="fill:#bec8d6; stroke:none;" d="M164 140L164 141L168 141L164 140M161 141L161 142L164 142L161 141M157 142L157 143L161 143L157 142M154 143L154 144L157 144L154 143M151 144L151 145L154 145L151 144M148 145L148 146L151 146L148 145M146.667 146.333L147.333 146.667L146.667 146.333M143 147L143 148L146 148L143 147M247 147L247 148L250 148L247 147M141.667 148.333L142.333 148.667L141.667 148.333M238 151L238 152L246 149L238 151z"/>
<path style="fill:#485395; stroke:none;" d="M246.667 148.333L247.333 148.667L246.667 148.333z"/>
<path style="fill:#010101; stroke:none;" d="M162 177C168.721 191.362 186.313 180.493 197 176.424C209.564 171.641 222.211 166.336 234 159.857C237.665 157.843 244.907 151.132 249 151.613C254.382 152.245 261.932 159.497 267 162.031C280.582 168.822 294.746 174.721 309 179.947C318.569 183.455 329.439 188.882 335 177C315.134 174.323 293.705 165.915 275 158.808C267.439 155.935 256.039 148.671 248 148.908C240.137 149.14 229.461 155.973 222 158.808C203.265 165.926 181.899 174.318 162 177z"/>
<path style="fill:#485395; stroke:none;" d="M249 148L249 149L253 150L253 149L249 148z"/>
<path style="fill:#bec8d6; stroke:none;" d="M251.667 148.333L252.333 148.667L251.667 148.333M138.667 149.333L139.333 149.667L138.667 149.333z"/>
<path style="fill:#23995c; stroke:none;" d="M140 149L141 150L140 149z"/>
<path style="fill:#485395; stroke:none;" d="M244 149L245 150L244 149z"/>
<path style="fill:#bec8d6; stroke:none;" d="M253 149L253 150L264 154L264 153L253 149M136.667 150.333L137.333 150.667L136.667 150.333z"/>
<path style="fill:#485395; stroke:none;" d="M242 150L243 151L242 150M247 150L243 155L247 150z"/>
<path style="fill:#bec8d6; stroke:none;" d="M248 150C259.451 165.91 288.15 174.316 306 180.692C312.327 182.952 320.114 187.012 327 186.678C332.239 186.425 335.823 181.196 338 177C315.9 167.489 288.442 159.423 265 154L265 155L336 177C327.698 188.776 318.586 183.944 307 179.575C285.999 171.655 266.508 162.643 248 150z"/>
<path style="fill:#485395; stroke:none;" d="M249 150L250 151L249 150M254 150L255 151L254 150z"/>
<path style="fill:#bec8d6; stroke:none;" d="M133.667 151.333L134.333 151.667L133.667 151.333M150.667 151.333L151.333 151.667L150.667 151.333z"/>
<path style="fill:#485395; stroke:none;" d="M240 151L241 152L240 151z"/>
<path style="fill:#bec8d6; stroke:none;" d="M247 151L248 152L247 151z"/>
<path style="fill:#485395; stroke:none;" d="M250 151L251 152L250 151M256 151L257 152L256 151z"/>
<path style="fill:#bec8d6; stroke:none;" d="M131.667 152.333L132.333 152.667L131.667 152.333M147 152L147 153L150 153L147 152M233 153L233 154L237 153L233 153z"/>
<path style="fill:#485395; stroke:none;" d="M237.667 152.333L238.333 152.667L237.667 152.333z"/>
<path style="fill:#bec8d6; stroke:none;" d="M246 152L247 153L246 152z"/>
<path style="fill:#485395; stroke:none;" d="M251 152L252 153L251 152M258.667 152.333L259.333 152.667L258.667 152.333z"/>
<path style="fill:#bec8d6; stroke:none;" d="M129.667 153.333L130.333 153.667L129.667 153.333M144 153L144 154L147 154L144 153z"/>
<path style="fill:#485395; stroke:none;" d="M235.667 153.333L236.333 153.667L235.667 153.333z"/>
<path style="fill:#bec8d6; stroke:none;" d="M245 153L246 154L245 153z"/>
<path style="fill:#485395; stroke:none;" d="M252 153L253 154L252 153M260.667 153.333L261.333 153.667L260.667 153.333z"/>
<path style="fill:#bec8d6; stroke:none;" d="M127.667 154.333L128.333 154.667L127.667 154.333M142.667 154.333L143.333 154.667L142.667 154.333M225 156L225 157L232 155L225 156z"/>
<path style="fill:#485395; stroke:none;" d="M232.667 154.333L233.333 154.667L232.667 154.333z"/>
<path style="fill:#bec8d6; stroke:none;" d="M244 154L245 155L244 154z"/>
<path style="fill:#485395; stroke:none;" d="M253 154L254 155L253 154M263.667 154.333L264.333 154.667L263.667 154.333z"/>
<path style="fill:#bec8d6; stroke:none;" d="M353.667 154.333L354.333 154.667L353.667 154.333M122 156L122 157L126 156L122 156z"/>
<path style="fill:#23995c; stroke:none;" d="M139 155L140 156L139 155z"/>
<path style="fill:#bec8d6; stroke:none;" d="M140.667 155.333L141.333 155.667L140.667 155.333z"/>
<path style="fill:#485395; stroke:none;" d="M230 155L231 156L230 155M241 155L240 157L241 155z"/>
<path style="fill:#bec8d6; stroke:none;" d="M242.667 155.333L243.333 155.667L242.667 155.333z"/>
<path style="fill:#485395; stroke:none;" d="M255 155L256 156L255 155M266 155L267 156L266 155z"/>
<path style="fill:#bec8d6; stroke:none;" d="M355.667 155.333L356.333 155.667L355.667 155.333M137.667 156.333L138.333 156.667L137.667 156.333z"/>
<path style="fill:#485395; stroke:none;" d="M227.667 156.333L228.333 156.667L227.667 156.333z"/>
<path style="fill:#bec8d6; stroke:none;" d="M241 156L242 157L241 156z"/>
<path style="fill:#485395; stroke:none;" d="M256 156L257 157L256 156M268.667 156.333L269.333 156.667L268.667 156.333z"/>
<path style="fill:#bec8d6; stroke:none;" d="M357 156L357 157L360 157L357 156M120.667 157.333L121.333 157.667L120.667 157.333M135.667 157.333L136.333 157.667L135.667 157.333M219 158L219 159L224 158L219 158z"/>
<path style="fill:#485395; stroke:none;" d="M224.667 157.333L225.333 157.667L224.667 157.333M238 157L239 158L238 157z"/>
<path style="fill:#bec8d6; stroke:none;" d="M239.667 157.333L240.333 157.667L239.667 157.333z"/>
<path style="fill:#485395; stroke:none;" d="M258 157L259 158L258 157M271.667 157.333L272.333 157.667L271.667 157.333z"/>
<path style="fill:#bec8d6; stroke:none;" d="M360.667 157.333L361.333 157.667L360.667 157.333M116 159L116 160L120 159L116 159M128 160L128 161L135 159L128 160z"/>
<path style="fill:#485395; stroke:none;" d="M222 158L223 159L222 158M236 158L231 161L231 162L237 159L236 158z"/>
<path style="fill:#bec8d6; stroke:none;" d="M237.667 158.333L238.333 158.667L237.667 158.333z"/>
<path style="fill:#485395; stroke:none;" d="M260 158L261 159L260 158M274.667 158.333L275.333 158.667L274.667 158.333z"/>
<path style="fill:#bec8d6; stroke:none;" d="M362 158L362 159L367 160L367 159L362 158M171 173L171 174L218 160L203 163.344L171 173z"/>
<path style="fill:#485395; stroke:none;" d="M218 159L218 160L221 160L218 159z"/>
<path style="fill:#bec8d6; stroke:none;" d="M236 159L237 160L236 159z"/>
<path style="fill:#485395; stroke:none;" d="M261.667 159.333L262.333 159.667L261.667 159.333M276.667 159.333L277.333 159.667L276.667 159.333z"/>
<path style="fill:#bec8d6; stroke:none;" d="M115 160L116 161L115 160z"/>
<path style="fill:#485395; stroke:none;" d="M216.667 160.333L217.333 160.667L216.667 160.333z"/>
<path style="fill:#bec8d6; stroke:none;" d="M234 160L235 161L234 160z"/>
<path style="fill:#485395; stroke:none;" d="M263.667 160.333L264.333 160.667L263.667 160.333M279.667 160.333L280.333 160.667L279.667 160.333z"/>
<path style="fill:#bec8d6; stroke:none;" d="M367.667 160.333L368.333 160.667L367.667 160.333M113.667 161.333L114.333 161.667L113.667 161.333M126.667 161.333L127.333 161.667L126.667 161.333z"/>
<path style="fill:#485395; stroke:none;" d="M213.667 161.333L214.333 161.667L213.667 161.333z"/>
<path style="fill:#bec8d6; stroke:none;" d="M232.667 161.333L233.333 161.667L232.667 161.333z"/>
<path style="fill:#485395; stroke:none;" d="M265 161L266 162L265 161M282.667 161.333L283.333 161.667L282.667 161.333z"/>
<path style="fill:#bec8d6; stroke:none;" d="M369.667 161.333L370.333 161.667L369.667 161.333M111.667 162.333L112.333 162.667L111.667 162.333M115 167L115 168L126 163L115 167z"/>
<path style="fill:#485395; stroke:none;" d="M210.667 162.333L211.333 162.667L210.667 162.333M229 162L230 163L229 162z"/>
<path style="fill:#bec8d6; stroke:none;" d="M230.667 162.333L231.333 162.667L230.667 162.333z"/>
<path style="fill:#485395; stroke:none;" d="M267 162L268 163L267 162M285.667 162.333L286.333 162.667L285.667 162.333z"/>
<path style="fill:#bec8d6; stroke:none;" d="M371 162L371 163L377 165L377 164L371 162M108 165L111 163L108 165z"/>
<path style="fill:#485395; stroke:none;" d="M207.667 163.333L208.333 163.667L207.667 163.333M216 168L216 169L228 164L216 168z"/>
<path style="fill:#bec8d6; stroke:none;" d="M228.667 163.333L229.333 163.667L228.667 163.333z"/>
<path style="fill:#485395; stroke:none;" d="M269.667 163.333L270.333 163.667L269.667 163.333M288.667 163.333L289.333 163.667L288.667 163.333M204.667 164.333L205.333 164.667L204.667 164.333z"/>
<path style="fill:#bec8d6; stroke:none;" d="M226.667 164.333L227.333 164.667L226.667 164.333M240 176C237.073 176 232.051 175.089 229.603 177.028C226.904 179.166 226.904 189.834 229.603 191.972C232.051 193.911 237.073 193 240 193C240 195.927 239.089 200.949 241.028 203.397C243.362 206.344 254.953 206.105 256.802 202.682C258.145 200.198 257.023 195.757 257 193C259.927 193 264.949 193.911 267.397 191.972C270.096 189.834 270.096 179.166 267.397 177.028C264.949 175.089 259.927 176 257 176C257 173.073 257.911 168.051 255.972 165.603C253.834 162.904 243.166 162.904 241.028 165.603C239.089 168.051 240 173.073 240 176z"/>
<path style="fill:#485395; stroke:none;" d="M271.667 164.333L272.333 164.667L271.667 164.333M291.667 164.333L292.333 164.667L291.667 164.333z"/>
<path style="fill:#bec8d6; stroke:none;" d="M106.667 165.333L107.333 165.667L106.667 165.333z"/>
<path style="fill:#485395; stroke:none;" d="M201.667 165.333L202.333 165.667L201.667 165.333z"/>
<path style="fill:#bec8d6; stroke:none;" d="M224.667 165.333L225.333 165.667L224.667 165.333z"/>
<path style="fill:#485395; stroke:none;" d="M242 165L241 167L242 165z"/>
<path style="fill:#db1927; stroke:none;" d="M241 177C238.073 177 233.051 176.089 230.603 178.028C228.029 180.067 228.029 188.933 230.603 190.972C233.051 192.911 238.073 192 241 192C241.001 203.499 245.245 204.277 256 203L256 192C262.082 191.999 276.379 185.934 266.397 178.028C263.949 176.089 258.927 177 256 177C256 174.119 256.911 169.138 254.972 166.742C247.209 157.147 241.001 170.816 241 177z"/>
<path style="fill:#485395; stroke:none;" d="M254 165L255 166L254 165M273.667 165.333L274.333 165.667L273.667 165.333M294 165L294 166L297 166L294 165z"/>
<path style="fill:#bec8d6; stroke:none;" d="M377 165L377 166L382 168L382 167L377 165M103 168L106 166L103 168z"/>
<path style="fill:#485395; stroke:none;" d="M197 166L197 167L200 167L197 166z"/>
<path style="fill:#bec8d6; stroke:none;" d="M222.667 166.333L223.333 166.667L222.667 166.333z"/>
<path style="fill:#485395; stroke:none;" d="M275.667 166.333L276.333 166.667L275.667 166.333M297 166L297 167L300 167L297 166M194.667 167.333L195.333 167.667L194.667 167.333z"/>
<path style="fill:#bec8d6; stroke:none;" d="M220.667 167.333L221.333 167.667L220.667 167.333z"/>
<path style="fill:#485395; stroke:none;" d="M277.667 167.333L278.333 167.667L277.667 167.333M301.667 167.333L302.333 167.667L301.667 167.333z"/>
<path style="fill:#bec8d6; stroke:none;" d="M100 170L103 168L100 170M113.667 168.333L114.333 168.667L113.667 168.333z"/>
<path style="fill:#485395; stroke:none;" d="M191.667 168.333L192.333 168.667L191.667 168.333z"/>
<path style="fill:#bec8d6; stroke:none;" d="M218.667 168.333L219.333 168.667L218.667 168.333z"/>
<path style="fill:#485395; stroke:none;" d="M279.667 168.333L280.333 168.667L279.667 168.333M304.667 168.333L305.333 168.667L304.667 168.333z"/>
<path style="fill:#bec8d6; stroke:none;" d="M382.667 168.333L383.333 168.667L382.667 168.333M110 171L113 169L110 171z"/>
<path style="fill:#23995c; stroke:none;" d="M187 169L188 170L187 169z"/>
<path style="fill:#485395; stroke:none;" d="M188.667 169.333L189.333 169.667L188.667 169.333M209 171L209 172L215 170L209 171z"/>
<path style="fill:#bec8d6; stroke:none;" d="M211 171L211 172L218 170L211 171z"/>
<path style="fill:#485395; stroke:none;" d="M282.667 169.333L283.333 169.667L282.667 169.333M307 169L307 170L310 170L307 169z"/>
<path style="fill:#bec8d6; stroke:none;" d="M384.667 169.333L385.333 169.667L384.667 169.333M97 172L100 170L97 172z"/>
<path style="fill:#485395; stroke:none;" d="M184 170L184 171L187 171L184 170M284.667 170.333L285.333 170.667L284.667 170.333M310 170L310 171L313 171L310 170z"/>
<path style="fill:#bec8d6; stroke:none;" d="M386 170L387 171L386 170M108.667 171.333L109.333 171.667L108.667 171.333z"/>
<path style="fill:#485395; stroke:none;" d="M181 171L181 172L184 172L181 171M287 171L288 172L287 171M314.667 171.333L315.333 171.667L314.667 171.333z"/>
<path style="fill:#bec8d6; stroke:none;" d="M387.667 171.333L388.333 171.667L387.667 171.333M93 175L97 173L93 175M98 179L108 172L98 179z"/>
<path style="fill:#485395; stroke:none;" d="M177 172L177 173L180 173L177 172M204 173L204 174L208 173L204 173z"/>
<path style="fill:#bec8d6; stroke:none;" d="M206 173L206 174L211 173L206 173z"/>
<path style="fill:#485395; stroke:none;" d="M289.667 172.333L290.333 172.667L289.667 172.333M317 172L317 173L320 173L317 172z"/>
<path style="fill:#bec8d6; stroke:none;" d="M389 172L392 174L389 172z"/>
<path style="fill:#485395; stroke:none;" d="M174.667 173.333L175.333 173.667L174.667 173.333M291.667 173.333L292.333 173.667L291.667 173.333M321.667 173.333L322.333 173.667L321.667 173.333z"/>
<path style="fill:#23995c; stroke:none;" d="M94 174L95 175L94 174z"/>
<path style="fill:#bec8d6; stroke:none;" d="M160 176C165.725 196.442 193.46 179.838 206 175L206 174C190.589 176.654 172.792 193.727 161 177L170 175L160 176z"/>
<path style="fill:#485395; stroke:none;" d="M170 174L170 175L173 175L170 174M202 174L203 175L202 174M294 174L295 175L294 174M324 174L324 175L327 175L324 174z"/>
<path style="fill:#bec8d6; stroke:none;" d="M392 174L399 179L392 174M90 177L93 175L90 177z"/>
<path style="fill:#485395; stroke:none;" d="M167 175L167 176L170 176L167 175M199.667 175.333L200.333 175.667L199.667 175.333M296.667 175.333L297.333 175.667L296.667 175.333M327 175L327 176L330 176L327 175M163 176L163 177L166 177L163 176M196.667 176.333L197.333 176.667L196.667 176.333M299.667 176.333L300.333 176.667L299.667 176.333M331 176L331 177L334 177L331 176z"/>
<path style="fill:#bec8d6; stroke:none;" d="M89 177L90 178L89 177z"/>
<path style="fill:#485395; stroke:none;" d="M161.333 177.667L161.667 178.333L161.333 177.667M194.667 177.333L195.333 177.667L194.667 177.333M301.667 177.333L302.333 177.667L301.667 177.333M335.333 177.667L335.667 178.333L335.333 177.667z"/>
<path style="fill:#bec8d6; stroke:none;" d="M88 178L89 179L88 178z"/>
<path style="fill:#485395; stroke:none;" d="M191.667 178.333L192.333 178.667L191.667 178.333M304.667 178.333L305.333 178.667L304.667 178.333z"/>
<path style="fill:#bec8d6; stroke:none;" d="M87 179L88 180L87 179M94 182L98 179L94 182z"/>
<path style="fill:#485395; stroke:none;" d="M162 179L163 180L162 179M189.667 179.333L190.333 179.667L189.667 179.333M306.667 179.333L307.333 179.667L306.667 179.333M334 179L335 180L334 179z"/>
<path style="fill:#bec8d6; stroke:none;" d="M399 179L403 182L399 179M83 183L87 180L83 183z"/>
<path style="fill:#485395; stroke:none;" d="M163 180L164 181L163 180M186.667 180.333L187.333 180.667L186.667 180.333M309.667 180.333L310.333 180.667L309.667 180.333M333 180L334 181L333 180M164 181L165 182L164 181M183.667 181.333L184.333 181.667L183.667 181.333M312.667 181.333L313.333 181.667L312.667 181.333M332 181L333 182L332 181z"/>
<path style="fill:#bec8d6; stroke:none;" d="M93 182L94 183L93 182z"/>
<path style="fill:#485395; stroke:none;" d="M165 182L166 183L165 182M180.667 182.333L181.333 182.667L180.667 182.333M315.667 182.333L316.333 182.667L315.667 182.333M331 182L332 183L331 182z"/>
<path style="fill:#bec8d6; stroke:none;" d="M403 182L409 187L403 182z"/>
<path style="fill:#23995c; stroke:none;" d="M404 182L405 183L404 182z"/>
<path style="fill:#bec8d6; stroke:none;" d="M82 183L83 184L82 183M89 186L93 183L89 186z"/>
<path style="fill:#485395; stroke:none;" d="M166 183L167 184L166 183M177.667 183.333L178.333 183.667L177.667 183.333M318.667 183.333L319.333 183.667L318.667 183.333M330 183L331 184L330 183z"/>
<path style="fill:#bec8d6; stroke:none;" d="M81 184L82 185L81 184z"/>
<path style="fill:#485395; stroke:none;" d="M167 184L168 185L167 184M173 184L173 185L176 185L173 184M321.667 184.333L322.333 184.667L321.667 184.333M329 184L330 185L329 184z"/>
<path style="fill:#bec8d6; stroke:none;" d="M80 185L81 186L80 185z"/>
<path style="fill:#485395; stroke:none;" d="M168 185L168 186L172 186L168 185M325 185L325 186L329 186L325 185z"/>
<path style="fill:#bec8d6; stroke:none;" d="M79 186L80 187L79 186M88 186L89 187L88 186M78 187L79 188L78 187M87 187L88 188L87 187M409 187L410 188L409 187M77 188L78 189L77 188M86 188L87 189L86 188M410 188L411 189L410 188M76 189L77 190L76 189M85 189L86 190L85 189M411 189L418 196L411 189M75 190L76 191L75 190M79 196L85 190L79 196M74 191L75 192L74 191z"/>
<path style="fill:#485395; stroke:none;" d="M266 191L267 192L266 191z"/>
<path style="fill:#bec8d6; stroke:none;" d="M73 192L74 193L73 192M72 193L73 194L72 193M71 194L68 199L71 194M78 196L79 197L78 196M418 196L419 197L418 196M77 197L78 198L77 197M419 197L420 198L419 197M76 198L77 199L76 198M420 198L421 199L420 198M67 199L68 200L67 199M75 199L73 203L75 199M421 199L424 203L421 199M66 200L65 203L66 200z"/>
<path style="fill:#23995c; stroke:none;" d="M429 200L430 201L429 200z"/>
<path style="fill:#485395; stroke:none;" d="M241 202L242 203L241 202z"/>
<path style="fill:#bec8d6; stroke:none;" d="M64 203L63 206L64 203M72 203L70 207L72 203z"/>
<path style="fill:#485395; stroke:none;" d="M253 203L254 204L253 203z"/>
<path style="fill:#bec8d6; stroke:none;" d="M424 203L425 204L424 203M425 204L427 207L425 204M62 206L61 209L62 206M69 207C53.9449 227.723 51.9748 250.64 57 275L58 275C56.8612 261.058 53.4825 249.065 57.4282 235C59.6947 226.921 69.7235 214.696 69 207M427 207L428 208L427 207M428 208L430 213L431 213L428 208M60.3333 209.667L60.6667 210.333L60.3333 209.667M59 211L58 214L59 211M431 213L433 218L434 218L431 213M57.3333 214.667L57.6667 215.333L57.3333 214.667M201 256C200.719 250.433 197.813 244.551 202 240C202.161 244.29 201.239 249.902 203.434 253.772C205.464 257.352 214.47 258.876 216.612 254.566C219.254 249.251 214.353 239.774 211 236C218.151 232.023 218.277 223.709 211.895 218.569C207.295 214.863 190.449 212.996 185.337 216.333C182.605 218.116 186 230.32 186 234C186 238.613 182.584 251.287 184.312 254.678C186.344 258.667 197.429 256.653 201 256M231 250L228 251C221.885 238.194 213.813 248.201 220.857 255.383C227.038 261.683 240.306 254.783 240.88 247C241.63 236.838 232.567 229.195 228 221C230.461 222.872 233.524 227.366 236.863 227.364C241.522 227.362 239.26 217.636 236.682 216.113C226.618 210.17 216.633 218.644 218.213 229C219.422 236.927 226.485 243.715 231 250M303 232C318.466 223.884 297.32 215.073 289 215.258C277.957 215.504 266.904 216.407 255.83 216.08C252.541 215.983 245.311 214.671 242.657 217.028C240.514 218.931 242.783 223.595 242.946 226C243.416 232.923 243.848 241.148 242.741 248C242.338 250.489 240.012 254.834 243.323 256.266C249.309 258.857 260.614 256.711 267 256.44C277.657 255.987 317.701 261.843 307.992 239.09C306.873 236.467 304.634 234.307 303 232M56.3333 216.667L56.6667 217.333L56.3333 216.667z"/>
<path style="fill:#23995c; stroke:none;" d="M221 244L221 255C224.325 254.88 227.687 255.107 230.999 254.921C252.639 253.705 227.56 226.71 228 219L238 227L239 226L236 216C230.826 217.294 223.421 214.754 220.179 220.214C214.988 228.955 224.745 238.454 229.067 244.999C229.809 246.123 232.905 251.513 229.354 251.515C226.591 251.517 223.424 245.518 221 244M185 217C187.638 229.849 187.638 242.151 185 255L200 255C199.65 253.295 195.651 236.421 201.741 239.921C205.887 242.304 202.854 249.127 204.603 252.682C206.338 256.208 212.789 255 216 255C215.054 247.512 215.377 240.922 208 237C215.577 232.127 218.289 222.204 207.999 218.009C201.453 215.341 191.974 217 185 217M242 218C246.202 227.918 245.499 244.983 242 255L257 255C256.517 252.146 251.898 237.207 258.08 237.207C264.147 237.207 259.574 252.203 259 255L274 255C271.071 242.535 271.071 229.465 274 217L259 217C259.54 219.631 263.792 231.793 258 231.793C252.208 231.793 256.46 219.631 257 217L242 218M276 218C281.647 228.266 280.118 244.468 276 255C283.4 255 293.011 256.607 299.999 253.852C312.016 249.115 307.335 237.985 299 233C305.66 230.037 309.924 221.875 300.957 218.148C294.512 215.47 282.568 216.059 276 218z"/>
<path style="fill:#bec8d6; stroke:none;" d="M55 218L54 223L55 223L55 218M434.333 218.667L434.667 219.333L434.333 218.667M199 219L199 236C206.03 233.311 206.03 221.689 199 219M291 219L290 232C296.867 230.854 296.394 221.974 291 219z"/>
<path style="fill:#010101; stroke:none;" d="M275 220C271.119 227.272 271.119 244.728 275 252L276 252C279.556 245.336 280.622 225.506 275 220z"/>
<path style="fill:#bec8d6; stroke:none;" d="M435.333 220.667L435.667 221.333L435.333 220.667z"/>
<path style="fill:#010101; stroke:none;" d="M200 221L200 234L202 234C202.992 229.453 203.26 224.54 200 221M257 221L257 232C260.916 229.461 260.208 225.089 259 221L257 221M291 221L291 231C294.71 228.595 294.155 224.918 293 221L291 221z"/>
<path style="fill:#bec8d6; stroke:none;" d="M436 222L439 233L440 233L436 222M53 223L52 229L53 229L53 223z"/>
<path style="fill:#23995c; stroke:none;" d="M59 224L60 225L59 224z"/>
<path style="fill:#bec8d6; stroke:none;" d="M51 229L51 232L52 232L51 229M50 232L50 236L51 236L50 232M440 233L441 268L442 268C442.864 257.051 445.416 243.17 440 233M290 235L290 252C297.413 250.763 297.413 236.237 290 235M49 236L49 241L50 241L49 236z"/>
<path style="fill:#010101; stroke:none;" d="M291 236L291 251C295.564 248.041 294 240.913 294 236L291 236M257 237L257 252L258 252L259 237L257 237z"/>
<path style="fill:#bec8d6; stroke:none;" d="M48 241L48 264L49 264L48 241M229 324L229 323C201.55 316.707 172.634 304.006 153.17 282.985C147.704 277.083 142.849 270.505 138.132 264C136.496 261.744 133.037 257.363 137.167 255.619C144.228 252.638 152.791 262.435 156.535 267C167.971 280.939 177.277 293.591 197 294C189.628 290.689 181.774 290.682 175 285.471C165.01 277.786 159.99 265.631 149.91 258.156C146.192 255.399 139.998 252.346 135.319 254.742C131.851 256.518 133.965 260.625 135.482 263C139.943 269.982 145.589 276.649 151.001 282.91C169.117 303.869 201.575 320.304 229 324M299 293L299 294C318.481 293.839 328.486 282.185 339.669 268C343.471 263.178 352.41 252.497 359.833 255.619C363.925 257.34 360.756 261.69 359.11 264C354.455 270.533 349.27 277.089 343.829 282.985C324.4 304.043 295.443 316.709 268 323C274.055 324.791 283.148 320.084 289 318.194C309.316 311.632 331.879 299.263 346.079 282.961C351.496 276.742 357.075 269.955 361.518 263C363.035 260.625 365.149 256.518 361.681 254.742C353.852 250.733 344.707 259.932 340.174 265C328.059 278.545 319.088 292.583 299 293z"/>
<path style="fill:#485395; stroke:none;" d="M134 256L134 257L143 256L134 256M354 255L354 256L363 257L354 255z"/>
<path style="fill:#010101; stroke:none;" d="M134 257C152.773 296.509 194.594 311.719 233 324C231.329 316.689 232.155 306.646 228.821 300C224.355 291.097 212.007 283.846 204 278.347C198.726 274.725 193.107 270.767 187 268.704C184.934 268.007 180.439 266.709 180.037 270.163C178.948 279.528 200.119 287.357 204 295C190.711 294.999 177.667 291.792 168.09 281.96C158.49 272.103 150.987 251.981 134 257z"/>
<path style="fill:#485395; stroke:none;" d="M144 256L145 257L144 256M352 256L353 257L352 256z"/>
<path style="fill:#010101; stroke:none;" d="M292 294C298.817 288.102 306.539 283.301 312.956 276.91C314.697 275.177 318.694 271.311 316.288 268.647C312.425 264.37 299.359 274.128 296 276.356C287.035 282.303 273.135 290.096 268.179 300C264.903 306.546 265.656 316.758 264 324C302.357 313.115 344.665 295.586 363 257C348.045 252.581 340.185 268.145 332.334 278C323.146 289.534 306.881 297.543 292 294z"/>
<path style="fill:#485395; stroke:none;" d="M146 257L147 258L146 257M350 257L351 258L350 257M134.333 258.667L134.667 259.333L134.333 258.667M147.667 258.333L148.333 258.667L147.667 258.333M348.667 258.333L349.333 258.667L348.667 258.333M362.333 258.667L362.667 259.333L362.333 258.667M149 259L150 260L149 259M347 259L348 260L347 259M135 260L136 261L135 260M150 260L151 261L150 260M346 260L347 261L346 260M361 260L362 261L361 260z"/>
<path style="fill:#23995c; stroke:none;" d="M54 261L55 262L54 261z"/>
<path style="fill:#485395; stroke:none;" d="M136 261L137 262L136 261M151 261L152 262L151 261M345 261L346 262L345 261M360.333 261.667L360.667 262.333L360.333 261.667M152 262L153 263L152 262M344 262L345 263L344 262z"/>
<path style="fill:#bec8d6; stroke:none;" d="M414 264C413.346 272.611 425.216 276.996 431 282L432 282C433.919 278.208 433.691 276.272 430 274L437 262L414 264M62 277L71 274C69.3531 279.17 65.7366 282.536 68 288L74 281L80 282C75.0918 286.327 66.3721 300.2 80.0008 300.558C84.2856 300.67 88.4356 296.977 92 295L82 308L88 308C87.6019 312.595 89.6377 313.719 94 313L94 319C98.4871 316.91 108.313 310.096 109.543 304.82C111.408 296.823 100.789 301.188 98 303C100.39 298.078 101.077 283.726 90.9853 287.801C88.669 288.736 81.6449 296.413 79.0602 293.458C75.0806 288.909 97.0115 284.149 86 278L81 263C74.5465 264.898 61.7531 269.309 62 277z"/>
<path style="fill:#485395; stroke:none;" d="M137 263L138 264L137 263M153 263L154 264L153 263M343 263L344 264L343 263M359 263L360 264L359 263z"/>
<path style="fill:#bec8d6; stroke:none;" d="M49 264L49 269L50 269L49 264z"/>
<path style="fill:#485395; stroke:none;" d="M138 264L139 265L138 264M154 264L155 265L154 264M342 264L343 265L342 264M358 264L359 265L358 264z"/>
<path style="fill:#23995c; stroke:none;" d="M422.667 264.333L423.333 264.667L422.667 264.333z"/>
<path style="fill:#485395; stroke:none;" d="M415 265C416.148 272.119 425.687 277.572 432 280L433 279L433 277L429 275L431 267L437 264L415 265M62 273L63 276L72 273L68 287L70 287L74 279C86.5119 284.189 84.1211 272.509 81 265L62 273M139 265L140 266L139 265M155 265L156 266L155 265M341 265L342 266L341 265M357.333 265.667L357.667 266.333L357.333 265.667M156 266L157 267L156 266z"/>
<path style="fill:#bec8d6; stroke:none;" d="M203 293L203 294L199 294L199 295L204 294C196.542 284.971 180.447 279.989 179 267L185 267C178.786 264.484 176.801 270.302 180.318 275C185.648 282.118 194.879 289.434 203 293M312 266L312 267L318 267C317.033 279.831 300.31 285.15 293 294L298 295L298 294L295 294C301.339 287.407 309.834 283.095 315.852 275.999C320.426 270.606 318.915 266.227 312 266z"/>
<path style="fill:#485395; stroke:none;" d="M340 266L341 267L340 266M140 267L141 268L140 267M179 267L179 269L181 267L179 267M183 267L183 268L188 269L188 268L183 267z"/>
<path style="fill:#bec8d6; stroke:none;" d="M186.667 267.333L187.333 267.667L186.667 267.333M226 267L226 268L230 268L226 267M242 267L242 268C255.702 272.701 247.446 292.305 238 283L237 283C240.355 288.89 245.321 287.721 250 284L253 287L253 286L258 277L251 282C251 278.179 249.977 274.244 253 275L255 269L255 268L250 272L242 267M257.667 267.333L258.333 267.667L257.667 267.333M261 268L261 269C267.903 274.832 259.96 278.329 256 283L265 281C263.697 285.292 261.265 285.861 257 286L257 287C262.482 286.981 266.576 286.468 265 280L258 282L258 281L268 274L269 287C268.748 282.199 270.507 275.922 266 273L266 272L274 268L275 287L276 287L275 267L261 268M265 315L266 315C266 292.099 291.192 276.249 311 268C305.088 267.015 297.719 273.188 293 276.333C277.255 286.829 265 295.215 265 315z"/>
<path style="fill:#485395; stroke:none;" d="M311.667 267.333L312.333 267.667L311.667 267.333M316 267L318 269L318 267L316 267M356 267L357 268L356 267z"/>
<path style="fill:#bec8d6; stroke:none;" d="M426 267L426 271L424 268L420 268L420 269L427 272L426 267z"/>
<path style="fill:#485395; stroke:none;" d="M141 268L142 269L141 268M157 268L158 269L157 268z"/>
<path style="fill:#bec8d6; stroke:none;" d="M188 268L188 269C202.225 274.954 222.777 288.077 230 302L231 302C227.362 288.05 201.268 271.822 188 268M221 271L225 269L221 271z"/>
<path style="fill:#485395; stroke:none;" d="M225 268L225 274L226 274L226 270L229 275L230 275C229.925 272.139 227.757 269.432 231 269L225 268z"/>
<path style="fill:#bec8d6; stroke:none;" d="M231 268L231 269C237.681 274.728 229.837 278.349 226 283L235 284L236 284L237 280L228 282L228 281L241 269L241 268L237 272L231 268z"/>
<path style="fill:#485395; stroke:none;" d="M238 270L238 271C246.246 268.705 244 279.55 244 285L241 283L242 287L249 283L245 285L245 268L238 270M255 268L255 274L256 274L261 269L255 268M270 271L274 269L270 271M309.667 268.333L310.333 268.667L309.667 268.333M339 268L340 269L339 268M355 268L356 269L355 268z"/>
<path style="fill:#010101; stroke:none;" d="M423 269L426 271L425 268L423 269z"/>
<path style="fill:#bec8d6; stroke:none;" d="M440 268L440 272L441 272L440 268M50 269L50 273L51 273L50 269M74 271C75.3518 274.85 76.9488 276.36 81 277L79 269L74 271z"/>
<path style="fill:#485395; stroke:none;" d="M142 269L143 270L142 269M158 269L159 270L158 269M189 269L190 270L189 269M223 269L224 275L223 269z"/>
<path style="fill:#010101; stroke:none;" d="M225 274L226 269C223.253 270.534 222.136 271.981 225 274M228 269C229.806 273.856 228.73 276.526 225 280C232.44 280.698 237.406 270.5 228 269z"/>
<path style="fill:#485395; stroke:none;" d="M232 269L233 270L232 269z"/>
<path style="fill:#010101; stroke:none;" d="M241 269C235.79 273.973 235.586 281.937 242 286L241 269M244 269L245 285C251.775 281.3 250.462 272.25 244 269z"/>
<path style="fill:#485395; stroke:none;" d="M246 269L247 270L246 269M253 269L252 271L253 269z"/>
<path style="fill:#010101; stroke:none;" d="M255 274L256 269C253.253 270.534 252.136 271.981 255 274M258 269L259 277L258 277L258 271L257 271L251 274L251 282L258 277L256 281C261.737 278.261 267.921 270.582 258 269z"/>
<path style="fill:#485395; stroke:none;" d="M262 269L263 270L262 269z"/>
<path style="fill:#010101; stroke:none;" d="M267 272L269 286L274 286L274 269L267 272z"/>
<path style="fill:#485395; stroke:none;" d="M307 269L308 270L307 269M338 269L339 270L338 269M354.333 269.667L354.667 270.333L354.333 269.667M159 270L160 271L159 270M191 270L192 271L191 270z"/>
<path style="fill:#bec8d6; stroke:none;" d="M226 270L226 274L227 274L228 270L226 270z"/>
<path style="fill:#485395; stroke:none;" d="M233 270L234 271L233 270z"/>
<path style="fill:#bec8d6; stroke:none;" d="M242 270L243 285L244 285L244 270L242 270z"/>
<path style="fill:#485395; stroke:none;" d="M247 270L248 271L247 270z"/>
<path style="fill:#bec8d6; stroke:none;" d="M256 270L256 274L257 274L257 271L258 271L258 276L259 276L259 270L256 270z"/>
<path style="fill:#485395; stroke:none;" d="M263 270L264 271L263 270M305 270L306 271L305 270z"/>
<path style="fill:#23995c; stroke:none;" d="M337 270L338 271L337 270z"/>
<path style="fill:#010101; stroke:none;" d="M77 271C76.478 274.092 76.9191 275.14 80 276L79 271L77 271z"/>
<path style="fill:#485395; stroke:none;" d="M143 271L144 272L143 271M179 271L180 272L179 271M193 271L194 272L193 271z"/>
<path style="fill:#bec8d6; stroke:none;" d="M228 271L221 287L222 287L228 271z"/>
<path style="fill:#485395; stroke:none;" d="M234 271L234 275L235 275L234 271z"/>
<path style="fill:#010101; stroke:none;" d="M243 271L244 272L243 271z"/>
<path style="fill:#485395; stroke:none;" d="M248 271L249 272L248 271M259 271L259 275L260 275L259 271M264 271L264 276L265 276L264 271M268 271L269 272L268 271M303.667 271.333L304.333 271.667L303.667 271.333M317.333 271.667L317.667 272.333L317.333 271.667M337 271L338 272L337 271M353 271L354 272L353 271z"/>
<path style="fill:#23995c; stroke:none;" d="M424 271L425 272L424 271z"/>
<path style="fill:#485395; stroke:none;" d="M144 272L145 273L144 272M160 272L161 273L160 272M194.667 272.333L195.333 272.667L194.667 272.333z"/>
<path style="fill:#bec8d6; stroke:none;" d="M220 272L221 273L220 272z"/>
<path style="fill:#485395; stroke:none;" d="M237 272L238 273L237 272M251 272L252 273L251 272M266 272L267 273L266 272M301.667 272.333L302.333 272.667L301.667 272.333M336 272L337 273L336 272M352 272L353 273L352 272z"/>
<path style="fill:#bec8d6; stroke:none;" d="M439 272L439 275L440 275L439 272M51 273L51 276L52 276L51 273z"/>
<path style="fill:#485395; stroke:none;" d="M145 273L146 274L145 273M161 273L162 274L161 273M180 273L181 274L180 273M196 273L197 274L196 273z"/>
<path style="fill:#bec8d6; stroke:none;" d="M221 273L221 275L223 275L221 273z"/>
<path style="fill:#010101; stroke:none;" d="M243 273L243 284L244 284L243 273z"/>
<path style="fill:#485395; stroke:none;" d="M249 273L249 276L250 276L249 273M252 273L253 274L252 273M268 273L269 274L268 273M300 273L301 274L300 273M316 273L317 274L316 273M335 273L336 274L335 273M351 273L352 274L351 273M146.333 274.667L146.667 275.333L146.333 274.667M181 274L182 275L181 274M198 274L199 275L198 274z"/>
<path style="fill:#bec8d6; stroke:none;" d="M224.667 274.333L225.333 274.667L224.667 274.333z"/>
<path style="fill:#485395; stroke:none;" d="M253 274L254 275L253 274z"/>
<path style="fill:#bec8d6; stroke:none;" d="M254.667 274.333L255.333 274.667L254.667 274.333z"/>
<path style="fill:#485395; stroke:none;" d="M298 274L299 275L298 274M315 274L316 275L315 274z"/>
<path style="fill:#bec8d6; stroke:none;" d="M408 296C403.397 294.945 386.962 292.401 391.047 303.019C392.032 305.58 399.047 311.462 396.965 314.364C393.782 318.799 387.176 301.977 382.658 305.89C380.096 308.11 384.07 312.292 385.404 314C387.677 316.908 390.159 320.824 394.015 321.664C401.798 323.358 405.527 315.113 402.432 309.002C401.194 306.557 399.437 304.331 398 302C402.588 306.098 406.396 311.133 413 310L407 302C421.976 304.017 419.341 299.149 410 290L424 297L428 288L427 288L423 296C419.323 293.52 408.676 288.931 407.731 284.331C406.855 280.069 413.401 275.939 417 276.453C422.458 277.233 426.352 282.157 428 287C432.659 269.955 397.02 273.029 403.156 289.995C404.014 292.369 406.304 294.246 408 296M58 275L58 278L59 278L58 275z"/>
<path style="fill:#485395; stroke:none;" d="M162 275L163 276L162 275M182 275L183 276L182 275M199 275L200 276L199 275z"/>
<path style="fill:#010101; stroke:none;" d="M235 275L228 281L228 282L236 281L235 275z"/>
<path style="fill:#23995c; stroke:none;" d="M236 275L237 276L236 275z"/>
<path style="fill:#485395; stroke:none;" d="M297 275L298 276L297 275M314 275L315 276L314 275M334 275L335 276L334 275z"/>
<path style="fill:#bec8d6; stroke:none;" d="M438 275L438 278L439 278L438 275z"/>
<path style="fill:#23995c; stroke:none;" d="M52 276L53 277L52 276z"/>
<path style="fill:#485395; stroke:none;" d="M147 276L148 277L147 276M163 276L164 277L163 276M183 276L184 277L183 276M201 276L202 277L201 276M228 276L229 277L228 276M233 276L234 277L233 276M236 276L236 280L237 280L236 276M258 276L259 277L258 276M263 276L264 277L263 276M295 276L296 277L295 276M313 276L314 277L313 276M333 276L334 277L333 276M349 276L350 277L349 276M423 296C424.623 293.536 426.614 290.926 427.307 288C431.675 269.57 399.018 277.535 409.192 287.24C410.878 288.848 413.068 290.05 415 291.333C417.609 293.065 420.172 294.662 423 296M148 277L149 278L148 277M164 277L165 278L164 277M184 277L185 278L184 277M202 277L203 278L202 277M227.333 277.667L227.667 278.333L227.333 277.667M232 277L233 278L232 277M262 277L263 278L262 277M294 277L295 278L294 277M312 277L313 278L312 277M332 277L333 278L332 277M348 277L349 278L348 277z"/>
<path style="fill:#bec8d6; stroke:none;" d="M59 278L61 285L62 285L59 278z"/>
<path style="fill:#485395; stroke:none;" d="M149 278L150 279L149 278M165.333 278.667L165.667 279.333L165.333 278.667M185 278L186 279L185 278M204 278L205 279L204 278M230 278L231 279L230 278M257 278L258 279L257 278M260.667 278.333L261.333 278.667L260.667 278.333M292 278L293 279L292 278M311 278L312 279L311 278M331.333 278.667L331.667 279.333L331.333 278.667M347 278L348 279L347 278z"/>
<path style="fill:#bec8d6; stroke:none;" d="M437 278L436 283L437 283L437 278z"/>
<path style="fill:#485395; stroke:none;" d="M86 279C82.1212 282.309 76.3013 285.246 74.0432 290.004C71.591 295.17 76.6355 300.709 82 299.254C86.804 297.951 90.9222 293.686 95 291L95 289L94 288C89.736 289.64 85.498 294.789 81.0478 295.261C70.72 296.355 87.4159 283.138 89 282L86 279M150 279L151 280L150 279M186 279L187 280L186 279M205 279L206 280L205 279M228.667 279.333L229.333 279.667L228.667 279.333M249 279L249 282L250 282L249 279M256 279L257 280L256 279M259 279L260 280L259 279M291 279L292 280L291 279M310 279L311 280L310 279M346 279L347 280L346 279z"/>
<path style="fill:#bec8d6; stroke:none;" d="M413.438 280.042C407.608 283.863 418.521 292.241 422.547 289.264C427.844 285.348 418.064 277.011 413.438 280.042z"/>
<path style="fill:#23995c; stroke:none;" d="M443 279L444 280L443 279z"/>
<path style="fill:#485395; stroke:none;" d="M166 280L167 281L166 280M187.667 280.333L188.333 280.667L187.667 280.333M207 280L208 281L207 280M227 280L228 281L227 280M255 280L252 282L252 283L255 282L262 284L262 283L256 283L255 280M257 280L258 281L257 280M289.667 280.333L290.333 280.667L289.667 280.333M308 280L309 281L308 280z"/>
<path style="fill:#23995c; stroke:none;" d="M309 280L310 281L309 280z"/>
<path style="fill:#485395; stroke:none;" d="M330 280L331 281L330 280z"/>
<path style="fill:#010101; stroke:none;" d="M412 284L422 290C424.794 283.136 415.911 276.982 412 284z"/>
<path style="fill:#23995c; stroke:none;" d="M83 281L84 282L83 281z"/>
<path style="fill:#485395; stroke:none;" d="M151 281L152 282L151 281M167 281L168 282L167 281M189 281L190 282L189 281M208 281L209 282L208 281M232 287L232 286L222 286L223 282C227.095 284.13 229.913 284.18 234 282L233 286L234 286L235 281L226 283L227 281C216.12 282.735 226.345 286.999 232 287M237.333 281.667L237.667 282.333L237.333 281.667M263 281L264 285L265 285L263 281M288 281L289 282L288 281M307 281L308 282L307 281M329 281L330 282L329 281M345 281L346 282L345 281M152 282L153 283L152 282M168 282L169 283L168 282M190 282L191 283L190 282M209 282L210 283L209 282z"/>
<path style="fill:#010101; stroke:none;" d="M223 282L222 286C226.69 286 232.262 287.237 234 282C230.519 283.464 228.155 284.341 225 282L223 282M250.333 282.667L250.667 283.333L250.333 282.667M254 282L252 286L264 286L264 282L254 282z"/>
<path style="fill:#485395; stroke:none;" d="M286.667 282.333L287.333 282.667L286.667 282.333M306 282L307 283L306 282M328 282L329 283L328 282M344 282L345 283L344 282z"/>
<path style="fill:#23995c; stroke:none;" d="M422 282L423 283L422 282z"/>
<path style="fill:#485395; stroke:none;" d="M153 283L154 284L153 283M169 283L170 284L169 283M191 283L192 284L191 283M210.667 283.333L211.333 283.667L210.667 283.333M238.333 283.667L238.667 284.333L238.333 283.667M285 283L286 284L285 283M305 283L306 284L305 283M327 283L328 284L327 283M343 283L344 284L343 283z"/>
<path style="fill:#23995c; stroke:none;" d="M423 283L424 284L423 283z"/>
<path style="fill:#bec8d6; stroke:none;" d="M435.333 283.667L435.667 284.333L435.333 283.667z"/>
<path style="fill:#485395; stroke:none;" d="M154 284L155 285L154 284M170 284L171 285L170 284M192 284L193 285L192 284M212 284L213 285L212 284M251.333 284.667L251.667 285.333L251.333 284.667M268.333 284.667L268.667 285.333L268.333 284.667M274 284L269 286L269 287C271.499 286.959 275.235 287.275 274 284M284 284L285 285L284 284M304 284L305 285L304 284M326 284L327 285L326 284M342 284L343 285L342 284z"/>
<path style="fill:#bec8d6; stroke:none;" d="M62.3333 285.667L62.6667 286.333L62.3333 285.667z"/>
<path style="fill:#485395; stroke:none;" d="M155 285L156 286L155 285M171.667 285.333L172.333 285.667L171.667 285.333M193 285L194 286L193 285M213 285L216 287L213 285z"/>
<path style="fill:#bec8d6; stroke:none;" d="M234 285L232 286L232 287L234 285z"/>
<path style="fill:#485395; stroke:none;" d="M240 285L241 286L240 285M283 285L284 286L283 285M303 285L304 286L303 285M324.667 285.333L325.333 285.667L324.667 285.333M341 285L342 286L341 285z"/>
<path style="fill:#bec8d6; stroke:none;" d="M434.333 285.667L434.667 286.333L434.333 285.667z"/>
<path style="fill:#485395; stroke:none;" d="M156 286L157 287L156 286M173 286L174 287L173 286M195 286L196 287L195 286M253 286L254 287L253 286z"/>
<path style="fill:#bec8d6; stroke:none;" d="M254.667 286.333L255.333 286.667L254.667 286.333z"/>
<path style="fill:#485395; stroke:none;" d="M256 286L257 287L256 286M281 286L282 287L281 286M301 286L302 287L301 286M323 286L324 287L323 286M340 286L341 287L340 286z"/>
<path style="fill:#bec8d6; stroke:none;" d="M63.3333 287.667L63.6667 288.333L63.3333 287.667z"/>
<path style="fill:#485395; stroke:none;" d="M157 287L158 288L157 287M174 287L175 288L174 287M196 287L197 288L196 287M216 287L217 288L216 287M280 287L281 288L280 287M300 287L301 288L300 287M322 287L323 288L322 287M339 287L340 288L339 287M404 287L411 298L396 295C397.813 301.458 404.542 308.187 411 310L403 300L419 301L404 287z"/>
<path style="fill:#bec8d6; stroke:none;" d="M433.333 287.667L433.667 288.333L433.333 287.667z"/>
<path style="fill:#485395; stroke:none;" d="M159 288L160 289L159 288M176 288L177 289L176 288M197.667 288.333L198.333 288.667L197.667 288.333M217 288L218 289L217 288M279 288L280 289L279 288M298.667 288.333L299.333 288.667L298.667 288.333M320 288L321 289L320 288M337 288L338 289L337 288z"/>
<path style="fill:#010101; stroke:none;" d="M408 288L410 290L408 288z"/>
<path style="fill:#bec8d6; stroke:none;" d="M64 289L66 294L67 294L64 289z"/>
<path style="fill:#485395; stroke:none;" d="M160 289L161 290L160 289M177.667 289.333L178.333 289.667L177.667 289.333M199 289L200 290L199 289M218 289L219 290L218 289M278 289L279 290L278 289M297 289L298 290L297 289M318.667 289.333L319.333 289.667L318.667 289.333M336 289L337 290L336 289z"/>
<path style="fill:#bec8d6; stroke:none;" d="M408 289L409 290L408 289M432.333 289.667L432.667 290.333L432.333 289.667z"/>
<path style="fill:#485395; stroke:none;" d="M161 290L162 291L161 290M179.667 290.333L180.333 290.667L179.667 290.333M200 290L201 291L200 290M220 290L221 291L220 290M276 290L277 291L276 290M296 290L297 291L296 290M316.667 290.333L317.333 290.667L316.667 290.333M333 292L336 290L333 292z"/>
<path style="fill:#23995c; stroke:none;" d="M93 291L94 292L93 291z"/>
<path style="fill:#485395; stroke:none;" d="M162.667 291.333L163.333 291.667L162.667 291.333M182.667 291.333L183.333 291.667L182.667 291.333M202 291L203 292L202 291M221 291L222 292L221 291M275 291L276 292L275 291M294 291L295 292L294 291M313.667 291.333L314.333 291.667L313.667 291.333z"/>
<path style="fill:#bec8d6; stroke:none;" d="M431 291L432 292L431 291z"/>
<path style="fill:#485395; stroke:none;" d="M83 307L94 300L88 312L101 307L95 318C97.3182 316.367 112.95 303.754 105.808 301.447C102.263 300.302 96.9291 305.369 94 307C95.1648 305.097 103.235 293.299 96.8873 293.203C92.1746 293.132 85.4016 303.578 83 307M164 292L165 293L164 292M185.667 292.333L186.333 292.667L185.667 292.333M203 292L204 293L203 292M222 292L223 293L222 292M274 292L275 293L274 292M293 292L294 293L293 292M310.667 292.333L311.333 292.667L310.667 292.333M332 292L333 293L332 292z"/>
<path style="fill:#bec8d6; stroke:none;" d="M430.333 292.667L430.667 293.333L430.333 292.667z"/>
<path style="fill:#485395; stroke:none;" d="M165 293L166 294L165 293M188 293L188 294L191 294L188 293M223 293L224 294L223 293M273 293L274 294L273 293M292 293L293 294L292 293M306 293L306 294L309 294L306 293M331 293L332 294L331 293z"/>
<path style="fill:#bec8d6; stroke:none;" d="M67 294L69 297L67 294z"/>
<path style="fill:#010101; stroke:none;" d="M92 294L93 295L92 294z"/>
<path style="fill:#485395; stroke:none;" d="M167 294L168 295L167 294M193 294L193 295L199 295L193 294M203 294L204 295L203 294M224 294L225 295L224 294M272 294L273 295L272 294M293 294L294 295L293 294M298 294L298 295L304 295L298 294M329 294L330 295L329 294z"/>
<path style="fill:#bec8d6; stroke:none;" d="M429 294L428 297L429 294z"/>
<path style="fill:#485395; stroke:none;" d="M168 295L169 296L168 295M225 295L226 296L225 295M271 295L272 296L271 295M328 295L329 296L328 295z"/>
<path style="fill:#23995c; stroke:none;" d="M400 295L401 296L400 295M79 296L80 297L79 296M92 296L93 297L92 296z"/>
<path style="fill:#485395; stroke:none;" d="M169 296L170 297L169 296M226 296L227 297L226 296M270 296L271 297L270 296M327 296L328 297L327 296z"/>
<path style="fill:#bec8d6; stroke:none;" d="M69 297L72 301L69 297z"/>
<path style="fill:#485395; stroke:none;" d="M171 297L172 298L171 297M227 297L228 298L227 297M269 297L270 298L269 297M325 297L326 298L325 297z"/>
<path style="fill:#bec8d6; stroke:none;" d="M427 297L426 300L427 297z"/>
<path style="fill:#485395; stroke:none;" d="M172 298L173 299L172 298M228 298L229 299L228 298M268 298L269 299L268 298M324 298L325 299L324 298z"/>
<path style="fill:#010101; stroke:none;" d="M394 298L398 302L394 298z"/>
<path style="fill:#bec8d6; stroke:none;" d="M94 299L95 300L94 299z"/>
<path style="fill:#485395; stroke:none;" d="M174 299L175 300L174 299M267.333 299.667L267.667 300.333L267.333 299.667M322.667 299.333L323.333 299.667L322.667 299.333M392 299C391.652 305.004 397.543 307.439 398.477 312.952C400.146 322.805 387.212 307.946 386 306L382 307C384.598 311.56 388.108 317.583 393.004 319.968C397.779 322.294 403.285 318.25 402.663 313C402.046 307.791 396.779 303.205 394 299L392 299M175 300L176 301L175 300M229 300L230 301L229 300M321 300L322 301L321 300z"/>
<path style="fill:#bec8d6; stroke:none;" d="M425 300L426 301L425 300M72 301L74 304L72 301z"/>
<path style="fill:#485395; stroke:none;" d="M176.667 301.333L177.333 301.667L176.667 301.333M319.667 301.333L320.333 301.667L319.667 301.333z"/>
<path style="fill:#010101; stroke:none;" d="M406 301L407 302L406 301z"/>
<path style="fill:#bec8d6; stroke:none;" d="M424 301L422 305L424 301z"/>
<path style="fill:#485395; stroke:none;" d="M178 302L179 303L178 302M230 302L230 309L231 309L230 302M266 302L266 310L267 310L266 302M318 302L319 303L318 302z"/>
<path style="fill:#010101; stroke:none;" d="M97 303L98 304L97 303z"/>
<path style="fill:#485395; stroke:none;" d="M179.667 303.333L180.333 303.667L179.667 303.333z"/>
<path style="fill:#bec8d6; stroke:none;" d="M231 303L231 314L232 314L231 303z"/>
<path style="fill:#485395; stroke:none;" d="M317 303L318 304L317 303z"/>
<path style="fill:#bec8d6; stroke:none;" d="M74 304L75 305L74 304z"/>
<path style="fill:#485395; stroke:none;" d="M181 304L182 305L181 304M315 304L316 305L315 304z"/>
<path style="fill:#bec8d6; stroke:none;" d="M75 305L76 306L75 305z"/>
<path style="fill:#010101; stroke:none;" d="M89 305L90 306L89 305z"/>
<path style="fill:#485395; stroke:none;" d="M182.667 305.333L183.333 305.667L182.667 305.333M313.667 305.333L314.333 305.667L313.667 305.333z"/>
<path style="fill:#bec8d6; stroke:none;" d="M421 305L422 306L421 305M76 306L77 307L76 306M101 306L102 307L101 306z"/>
<path style="fill:#485395; stroke:none;" d="M184 306L185 307L184 306M312 306L313 307L312 306z"/>
<path style="fill:#23995c; stroke:none;" d="M409 306L410 307L409 306z"/>
<path style="fill:#bec8d6; stroke:none;" d="M420 306L421 307L420 306M77 307L78 308L77 307z"/>
<path style="fill:#010101; stroke:none;" d="M88 307L89 308L88 307z"/>
<path style="fill:#bec8d6; stroke:none;" d="M98 322L106.763 323.001L113 332L114 329L111 330L110 329C111.77 320.463 105.487 320.85 99 321C101.307 318.894 114.976 306.062 117.508 310.833C119.416 314.429 114.549 323.923 114 328C116.169 324.554 121.821 312.245 118.356 308.758C113.278 303.645 99.4134 317.376 98 322z"/>
<path style="fill:#485395; stroke:none;" d="M186 307L187 308L186 307M310 307L311 308L310 307z"/>
<path style="fill:#bec8d6; stroke:none;" d="M419 307L410 317C413.923 315.17 419.099 311.69 419 307M78 308L87 317L78 308z"/>
<path style="fill:#485395; stroke:none;" d="M99 321C105.112 321.84 110.931 320.624 110 329L111 330L113 330C114.373 326.36 120.357 312.83 117.223 309.712C113.454 305.963 101.212 318.134 99 321M187.667 308.333L188.333 308.667L187.667 308.333M308.667 308.333L309.333 308.667L308.667 308.333z"/>
<path style="fill:#23995c; stroke:none;" d="M396 308L397 309L396 308z"/>
<path style="fill:#485395; stroke:none;" d="M189 309L190 310L189 309M306.667 309.333L307.333 309.667L306.667 309.333z"/>
<path style="fill:#23995c; stroke:none;" d="M88 310L89 311L88 310z"/>
<path style="fill:#485395; stroke:none;" d="M191.667 310.333L192.333 310.667L191.667 310.333M304.667 310.333L305.333 310.667L304.667 310.333z"/>
<path style="fill:#bec8d6; stroke:none;" d="M383 318C381.976 308.889 368.568 308.294 366.881 317.184C366.201 320.771 370.502 325.235 372.309 327.999C373.893 330.423 375.618 334.218 379.043 334.033C387.921 333.554 392.882 320.934 383 318z"/>
<path style="fill:#010101; stroke:none;" d="M95 311L96 312L95 311z"/>
<path style="fill:#485395; stroke:none;" d="M193.667 311.333L194.333 311.667L193.667 311.333M302.667 311.333L303.333 311.667L302.667 311.333z"/>
<path style="fill:#23995c; stroke:none;" d="M377 311L378 312L377 311z"/>
<path style="fill:#010101; stroke:none;" d="M94 312L95 313L94 312z"/>
<path style="fill:#485395; stroke:none;" d="M196 312L197 313L196 312M300 312L301 313L300 312M367 317L377 334C383.383 331.659 394.092 321.581 382 319C381.217 308.737 372.738 313.149 367 317z"/>
<path style="fill:#bec8d6; stroke:none;" d="M113 313L109 319L113 320L113 313M125 313C122.064 318.03 111.902 331.734 120 335L123 328L128 329L125 338L130 340L139 319C134.462 318.854 132.891 320.649 132 325L127 323C129.034 318.378 130.616 315.072 125 313z"/>
<path style="fill:#485395; stroke:none;" d="M198.667 313.333L199.333 313.667L198.667 313.333M297.667 313.333L298.333 313.667L297.667 313.333M201.667 314.333L202.333 314.667L201.667 314.333M231 314L231 319L232 319L231 314M294.667 314.333L295.333 314.667L294.667 314.333z"/>
<path style="fill:#010101; stroke:none;" d="M112 315L111 319L112 315z"/>
<path style="fill:#485395; stroke:none;" d="M125 315L117 333L123 326L130 329L126 338C132.566 336.871 135.92 326.715 138 321L137 320L135 320C128.962 329.106 126.747 322.139 128 315L125 315M204.667 315.333L205.333 315.667L204.667 315.333M265 315L265 319L266 319L265 315M291.667 315.333L292.333 315.667L291.667 315.333z"/>
<path style="fill:#23995c; stroke:none;" d="M369 315L370 316L369 315z"/>
<path style="fill:#bec8d6; stroke:none;" d="M372 317C373.922 323.17 378.227 319.887 379 315L372 317z"/>
<path style="fill:#485395; stroke:none;" d="M207.667 316.333L208.333 316.667L207.667 316.333z"/>
<path style="fill:#bec8d6; stroke:none;" d="M232 316L232 320L233 320L232 316M264 316L264 320L265 320L264 316z"/>
<path style="fill:#485395; stroke:none;" d="M288.667 316.333L289.333 316.667L288.667 316.333z"/>
<path style="fill:#010101; stroke:none;" d="M373 318L373 319C376.092 319.522 377.14 319.081 378 316L373 318z"/>
<path style="fill:#bec8d6; stroke:none;" d="M87 317L88 318L87 317z"/>
<path style="fill:#485395; stroke:none;" d="M210.667 317.333L211.333 317.667L210.667 317.333M285.667 317.333L286.333 317.667L285.667 317.333z"/>
<path style="fill:#bec8d6; stroke:none;" d="M409 317L410 318L409 317M88 318L89 319L88 318z"/>
<path style="fill:#485395; stroke:none;" d="M213.667 318.333L214.333 318.667L213.667 318.333M282.667 318.333L283.333 318.667L282.667 318.333z"/>
<path style="fill:#bec8d6; stroke:none;" d="M408 318L409 319L408 318M89 319L90 320L89 319z"/>
<path style="fill:#485395; stroke:none;" d="M216.667 319.333L217.333 319.667L216.667 319.333M278 319L278 320L281 320L278 319z"/>
<path style="fill:#bec8d6; stroke:none;" d="M407 319L408 320L407 319M90 320L94 323L90 320z"/>
<path style="fill:#485395; stroke:none;" d="M219 320L219 321L222 321L219 320M232.333 320.667L232.667 321.333L232.333 320.667M264.333 320.667L264.667 321.333L264.333 320.667M275 320L275 321L278 321L275 320z"/>
<path style="fill:#bec8d6; stroke:none;" d="M356 331C354.656 329.992 353.332 328.89 351.955 327.926C337.848 318.054 349.416 342.573 352 347L356 345L353 337L358.025 340.319C370.268 347.937 361.78 327.29 358.791 323.192C355.492 318.669 353.698 323.558 354.628 326.959C354.998 328.311 355.556 329.673 356 331M403 323L407 320L403 323z"/>
<path style="fill:#485395; stroke:none;" d="M223.667 321.333L224.333 321.667L223.667 321.333z"/>
<path style="fill:#bec8d6; stroke:none;" d="M233 321L234 325L230 324L230 325L234 326L233 321M263 321L263 326L267 325L267 324L263 324L263 321z"/>
<path style="fill:#485395; stroke:none;" d="M272.667 321.333L273.333 321.667L272.667 321.333M226 322L226 323L229 323L226 322M269.667 322.333L270.333 322.667L269.667 322.333M355 322L359 335L346 326C344.33 332.851 349.419 339.793 352 346L355 345L351 333C355.09 336.755 359.148 341.082 365 340L357 322L355 322z"/>
<path style="fill:#bec8d6; stroke:none;" d="M376 324L378 329C386.212 326.998 384.12 320.578 376 324M94 323L95 324L94 323z"/>
<path style="fill:#485395; stroke:none;" d="M229 323L229 324L232 324L229 323M233.333 323.667L233.667 324.333L233.333 323.667M263 323L264 324L263 323M265 323L265 324L268 324L265 323z"/>
<path style="fill:#010101; stroke:none;" d="M377 325C379.897 327.516 381.51 326.723 384 324L377 325z"/>
<path style="fill:#bec8d6; stroke:none;" d="M402 323L403 324L402 323M95 324L98 326L95 324M398 327L402 324L398 327M98 326L99 327L98 326M151 344L143 337C141.423 342.401 142.487 346.063 148 348L148 347L143 339C144.552 339.917 145.227 340.592 146.449 341.917C155.843 352.104 147.405 332.64 147.466 332.043C148.404 322.901 157.777 330.236 160 334L156 335C154.927 331.464 153.675 330.46 150 331C153.118 337.698 161.329 345.49 149 348L149 349C156.621 348.149 159.239 342.771 156 336L159 337C163.495 327.166 148.609 321.696 146.323 330.189C144.917 335.411 149.942 339.294 151 344M99 327L102 329L99 327z"/>
<path style="fill:#23995c; stroke:none;" d="M126 327L127 328L126 327z"/>
<path style="fill:#485395; stroke:none;" d="M143 339C143.704 348.317 157.957 350.848 156.573 340.996C156.038 337.188 152.121 334.026 150 331L156 335L160 334C157.758 328.425 146.815 323.251 147.257 333.012C147.376 335.633 153.384 341.084 151.264 343.044C149.044 345.096 145.088 339.749 143 339z"/>
<path style="fill:#23995c; stroke:none;" d="M373 327L374 328L373 327z"/>
<path style="fill:#bec8d6; stroke:none;" d="M395 329L398 327L395 329M102 329L105 331L102 329z"/>
<path style="fill:#23995c; stroke:none;" d="M147 329L148 330L147 329z"/>
<path style="fill:#bec8d6; stroke:none;" d="M331 354L339.147 347.616L349 348C347.699 344.076 336.209 324.263 331.041 331.529C327.931 335.901 331 348.642 331 354M392 331L395 329L392 331M165 330L158 352C163.312 353.218 171.785 358.128 174 351L165 349L165 345L174 347C175.951 341.209 170.564 341.212 168 337L177 340L178 337L179 337L176 357L180 358L182 349L188 350C184.69 360.583 191.492 360.274 193.551 350C194.116 347.181 195.991 342.063 194.677 339.337C191.966 333.714 189.175 343.079 189 345C182.877 342.728 186.56 334.279 179 336L165 330M105 331L108 333L105 331z"/>
<path style="fill:#010101; stroke:none;" d="M151 331L156 336L151 331z"/>
<path style="fill:#485395; stroke:none;" d="M332 331L332 353C340.013 347.898 337.632 346.403 348 348C345.532 341.628 339.103 332.145 332 331z"/>
<path style="fill:#010101; stroke:none;" d="M356 331L357 332L356 331z"/>
<path style="fill:#bec8d6; stroke:none;" d="M389 333L392 331L389 333z"/>
<path style="fill:#485395; stroke:none;" d="M159 351L172 354L164 344L173 346L174 343L166 340C168.867 335.444 172.351 337.32 177 338C175.765 334.474 168.288 330.279 164.934 333.644C161.494 337.095 160.081 346.329 159 351z"/>
<path style="fill:#bec8d6; stroke:none;" d="M108 333L108 334L113 336L113 335L108 333M312 335C312.273 341.269 313.482 357.937 322 356L320 349C326.618 347.404 333.568 339.147 324.786 334.194C321.102 332.116 315.877 334.478 312 335M386 335L389 333L386 335z"/>
<path style="fill:#485395; stroke:none;" d="M317 356L320 356L319 348C320.713 347.727 322.37 347.562 323.916 346.682C335.791 339.925 316.84 329.242 313.777 338.303C312.194 342.986 316.345 351.134 317 356z"/>
<path style="fill:#bec8d6; stroke:none;" d="M384.667 335.333L385.333 335.667L384.667 335.333M113 336L113 337L122 341L122 340L113 336z"/>
<path style="fill:#23995c; stroke:none;" d="M163 336L164 337L163 336z"/>
<path style="fill:#485395; stroke:none;" d="M181 336L177 356L189 349L189 359L190 359L194 339C190.449 340.039 190.248 342.53 190 346L183 345L184 337L181 336z"/>
<path style="fill:#23995c; stroke:none;" d="M335 336L336 337L335 336z"/>
<path style="fill:#010101; stroke:none;" d="M352 336L353 337L352 336z"/>
<path style="fill:#23995c; stroke:none;" d="M363 336L364 337L363 336z"/>
<path style="fill:#bec8d6; stroke:none;" d="M377 339L377 340L384 337L377 339M296 362L301 361C303.48 352.651 308.305 358.552 314 359C313.571 354.837 305.803 333.658 299.735 338.902C295.173 342.844 296.004 356.461 296 362M335 337L335 343L339 342L335 337M317 339L318 345C324.934 343.554 324.327 337.475 317 339z"/>
<path style="fill:#23995c; stroke:none;" d="M337 338L338 339L337 338z"/>
<path style="fill:#bec8d6; stroke:none;" d="M193 360C196.712 361.002 198.521 360.68 200 357L213 363C212.651 358.613 211.015 338.523 204.255 340.086C199.404 341.209 194.79 355.701 193 360z"/>
<path style="fill:#485395; stroke:none;" d="M300 339L297 360L300 360C302.41 351.989 307.554 356.414 313 358C311.782 351.681 306.912 340.185 300 339z"/>
<path style="fill:#010101; stroke:none;" d="M318 340L319 344L323 343L322 339L318 340M336 339L338 342L336 339z"/>
<path style="fill:#bec8d6; stroke:none;" d="M282 355L295 362C294.218 358.974 291.879 356.102 291.652 353C291.395 349.49 293.56 346.575 291.138 343.279C288.617 339.846 277.615 338.781 275.693 343.434C274.363 346.653 275.964 359.685 278.174 362.377C282.41 367.537 282.425 356.954 282 355M375.667 340.333L376.333 340.667L375.667 340.333M122.667 341.333L123.333 341.667L122.667 341.333z"/>
<path style="fill:#485395; stroke:none;" d="M195 360C200.548 358.381 205.559 353.78 208 362L211 362C210.916 357.907 210.529 343.243 205.802 341.752C200.8 340.174 195.631 356.459 195 360z"/>
<path style="fill:#bec8d6; stroke:none;" d="M213 341L212 345L218 347C217.364 350.426 214.711 360.382 217.766 362.953C223.736 367.976 223.525 350.416 223 348L224 347L228 348C229.796 340.109 218.573 341.046 213 341M373.667 341.333L374.333 341.667L373.667 341.333M124.667 342.333L125.333 342.667L124.667 342.333z"/>
<path style="fill:#485395; stroke:none;" d="M214 345C221.427 347.731 218.004 356.582 218 363L221 363C221.501 356.649 220.311 347.226 228 346L228 343C223.593 343 216.688 341.101 214 345z"/>
<path style="fill:#bec8d6; stroke:none;" d="M238 365C243.907 364.54 243.981 361.262 244 356L249 356L249 365L254 365L255 343L249 343L249 351L244 351L243 342C235.097 345.354 238 357.72 238 365M256 365L265.95 360.634L276 364C274.506 359.584 270.55 342.909 264.95 342.752C259.299 342.593 256.64 360.649 256 365z"/>
<path style="fill:#23995c; stroke:none;" d="M278 342L279 343L278 342z"/>
<path style="fill:#485395; stroke:none;" d="M276 343L279 363L281 363L281 354L294 361L288 352C299.198 344.739 281.409 341.996 276 343z"/>
<path style="fill:#bec8d6; stroke:none;" d="M371.667 342.333L372.333 342.667L371.667 342.333M126.667 343.333L127.333 343.667L126.667 343.333M367 344L367 345L371 344L367 344M128.667 344.333L129.333 344.667L128.667 344.333z"/>
<path style="fill:#485395; stroke:none;" d="M240 344L239 364L242 364C242.243 353.956 249.881 353.903 250 364L253 364L253 344L250 344L250 352L242 351L242 344L240 344M257 364L261 364C263.717 356.612 268.479 360.522 273 364C273.668 360.582 268.91 341.51 263.52 345.086C259.579 347.702 258.028 359.557 257 364z"/>
<path style="fill:#bec8d6; stroke:none;" d="M130 345L130 346L137 348L137 347L130 345M281.622 346.028C278.26 348.703 283.611 352.094 286.339 349.272C289.155 346.359 283.916 344.202 281.622 346.028M302 345L301 351L302 352L306 351L302 345M360 347L360 348L367 346L360 347z"/>
<path style="fill:#010101; stroke:none;" d="M281 350L287 349C284.775 345.599 282.232 346.293 281 350z"/>
<path style="fill:#bec8d6; stroke:none;" d="M204 347L202 353L206 353L206 347L204 347M137.667 348.333L138.333 348.667L137.667 348.333z"/>
<path style="fill:#23995c; stroke:none;" d="M301 348L302 349L301 348z"/>
<path style="fill:#010101; stroke:none;" d="M303 348L302 350L304 350L303 348z"/>
<path style="fill:#bec8d6; stroke:none;" d="M358.667 348.333L359.333 348.667L358.667 348.333M139 349L139 350L144 351L144 350L139 349z"/>
<path style="fill:#010101; stroke:none;" d="M204 349L203 352L204 349z"/>
<path style="fill:#bec8d6; stroke:none;" d="M350 351L350 352L358 350L350 351z"/>
<path style="fill:#23995c; stroke:none;" d="M242 350L243 351L242 350z"/>
<path style="fill:#bec8d6; stroke:none;" d="M264 350L263 356L268 356L264 350z"/>
<path style="fill:#23995c; stroke:none;" d="M319 350L320 351L319 350z"/>
<path style="fill:#bec8d6; stroke:none;" d="M144 351L144 352L147 352L144 351z"/>
<path style="fill:#23995c; stroke:none;" d="M366 351L367 352L366 351z"/>
<path style="fill:#bec8d6; stroke:none;" d="M147 352L147 353L161 357L161 356L147 352z"/>
<path style="fill:#010101; stroke:none;" d="M265 352L264 355L265 352z"/>
<path style="fill:#bec8d6; stroke:none;" d="M335 356L335 357L350 353L335 356z"/>
<path style="fill:#23995c; stroke:none;" d="M354 356L355 357L354 356z"/>
<path style="fill:#bec8d6; stroke:none;" d="M162 357L162 358L165 358L162 357M332 357L332 358L335 358L332 357M165 358L165 359L176 361L165 358z"/>
<path style="fill:#23995c; stroke:none;" d="M188 358L189 359L188 358z"/>
<path style="fill:#bec8d6; stroke:none;" d="M324 359L324 360L332 359L324 359M287 366L287 367L324 361L287 366M176 361L176 362L181 362L176 361M181 362L181 363L210 367L181 362M210 367L210 368L278 369L255 368.985L210 367M278 367L278 368L287 368L278 367z"/>
</svg>
